<?xml version="1.0" standalone="no"?>
<!DOCTYPE svg PUBLIC "-//W3C//DTD SVG 20010904//EN"
 "http://www.w3.org/TR/2001/REC-SVG-20010904/DTD/svg10.dtd">
<svg version="1.0" xmlns="http://www.w3.org/2000/svg"
 width="512.000000pt" height="512.000000pt" viewBox="0 0 512.000000 512.000000"
 preserveAspectRatio="xMidYMid meet">

<g transform="translate(0.000000,512.000000) scale(0.100000,-0.100000)"
fill="#000000" stroke="none">
<path d="M1977 4839 c-157 -38 -314 -143 -421 -280 -152 -193 -218 -396 -231
-709 -9 -231 -45 -396 -124 -579 -82 -189 -242 -390 -390 -490 -138 -94 -330
-161 -464 -161 -75 0 -113 -54 -69 -98 14 -14 41 -21 103 -25 383 -30 722
-331 868 -772 51 -154 81 -352 81 -533 0 -91 31 -246 70 -353 83 -229 238
-408 435 -504 129 -64 296 -94 340 -61 23 17 25 74 2 91 -9 7 -48 15 -85 18
-265 22 -500 237 -596 544 -29 94 -41 184 -56 408 -20 317 -100 560 -263 798
-113 165 -310 335 -463 398 -30 13 -54 26 -54 29 0 4 19 15 43 24 24 9 79 38
123 65 194 121 356 306 465 535 94 199 134 357 149 601 15 224 27 314 56 408
70 221 212 399 389 486 69 34 170 61 231 61 53 0 77 19 77 60 0 20 -7 38 -18
46 -26 19 -105 16 -198 -7z"/>
<path d="M2945 4846 c-23 -17 -25 -74 -2 -91 9 -7 48 -15 86 -18 233 -19 447
-191 558 -448 54 -125 73 -217 84 -404 18 -329 60 -508 170 -726 126 -252 355
-483 565 -570 30 -13 54 -26 54 -29 0 -4 -19 -15 -43 -24 -136 -52 -348 -228
-459 -383 -107 -148 -187 -322 -232 -500 -33 -131 -44 -216 -55 -418 -13 -231
-46 -354 -135 -505 -118 -200 -308 -330 -507 -347 -83 -7 -102 -19 -102 -63 0
-62 48 -73 191 -45 156 31 339 147 443 281 153 198 213 376 230 679 5 99 16
219 25 267 94 553 472 960 923 995 90 7 121 23 121 63 0 40 -31 56 -121 63
-327 26 -619 245 -797 597 -85 170 -128 341 -143 575 -19 311 -44 428 -125
592 -91 181 -223 317 -389 398 -129 64 -296 94 -340 61z"/>
</g>
</svg>
